<svg width="238" height="290" viewBox="0 0 238 290" fill="none" xmlns="http://www.w3.org/2000/svg">
<g filter="url(#filter0_d_122_9)">
<rect x="1" y="16" width="227.5" height="265" rx="9" stroke="#FABC0F" stroke-width="2"/>
<path d="M21 6C21 2.68629 23.6863 0 27 0H81C84.3137 0 87 2.68629 87 6V15H21V6Z" fill="#FABC0F"/>
<path d="M28.8004 11.4052C29.0571 11.4052 29.296 11.363 29.517 11.2785C29.7412 11.194 29.9476 11.0868 30.1361 10.9568L30.5359 11.493C30.3116 11.6848 30.0419 11.8359 29.7266 11.9464C29.4114 12.0569 29.1026 12.1121 28.8004 12.1121C28.2901 12.1121 27.8546 12.0032 27.4939 11.7855C27.1364 11.5645 26.8634 11.2558 26.6749 10.8593C26.4864 10.4595 26.3921 9.9915 26.3921 9.45525C26.3921 8.94175 26.4864 8.48188 26.6749 8.07562C26.8666 7.66612 27.1412 7.34438 27.4987 7.11038C27.8595 6.87638 28.2966 6.75937 28.8101 6.75937C29.1384 6.75937 29.4455 6.80975 29.7315 6.9105C30.0208 7.008 30.2856 7.15588 30.5261 7.35413L30.1264 7.90012C29.9086 7.74737 29.6893 7.63362 29.4683 7.55887C29.2505 7.48087 29.0279 7.44187 28.8004 7.44187C28.3584 7.44187 27.9944 7.60762 27.7084 7.93912C27.4224 8.27063 27.2794 8.776 27.2794 9.45525C27.2794 9.91025 27.3444 10.2824 27.4744 10.5716C27.6076 10.8576 27.788 11.0689 28.0155 11.2054C28.2462 11.3386 28.5079 11.4052 28.8004 11.4052Z" fill="black"/>
<path d="M34.3248 4.79962V10.7325C34.3248 10.986 34.4028 11.1664 34.5588 11.2736C34.7181 11.3776 34.9228 11.4296 35.1731 11.4296C35.3291 11.4296 35.4769 11.4134 35.6167 11.3809C35.7564 11.3484 35.8962 11.3045 36.0359 11.2492L36.2553 11.8489C36.1156 11.9171 35.9417 11.9772 35.7337 12.0292C35.5289 12.0845 35.2966 12.1121 35.0366 12.1121C34.5816 12.1121 34.2127 11.987 33.9299 11.7368C33.6472 11.4833 33.5058 11.1339 33.5058 10.6886V5.448H31.9312V4.79962H34.3248Z" fill="black"/>
<path d="M40.1271 6.75937C40.6114 6.75937 41.016 6.86987 41.341 7.09087C41.6693 7.30862 41.9146 7.61737 42.0771 8.01712C42.2429 8.41687 42.3258 8.88813 42.3258 9.43088C42.3258 9.95413 42.2413 10.4173 42.0723 10.8203C41.9033 11.2233 41.6546 11.5401 41.3264 11.7709C41.0014 11.9984 40.5984 12.1121 40.1174 12.1121C39.6364 12.1121 39.2318 12.0016 38.9035 11.7806C38.5753 11.5596 38.3266 11.2492 38.1576 10.8495C37.9919 10.4465 37.909 9.97687 37.909 9.44062C37.909 8.91087 37.9935 8.4445 38.1625 8.0415C38.3315 7.6385 38.5801 7.32487 38.9084 7.10062C39.2399 6.87312 39.6461 6.75937 40.1271 6.75937ZM40.1271 7.42725C39.6851 7.42725 39.3504 7.59137 39.1229 7.91962C38.8986 8.24462 38.7865 8.75162 38.7865 9.44062C38.7865 10.1166 38.897 10.6187 39.118 10.947C39.3423 11.2752 39.6754 11.4394 40.1174 11.4394C40.5594 11.4394 40.8909 11.2752 41.1119 10.947C41.3361 10.6187 41.4483 10.1134 41.4483 9.43088C41.4483 8.74837 41.3378 8.24462 41.1168 7.91962C40.8958 7.59137 40.5659 7.42725 40.1271 7.42725Z" fill="black"/>
<path d="M46.339 11.4052C46.5957 11.4052 46.8346 11.363 47.0556 11.2785C47.2798 11.194 47.4862 11.0868 47.6747 10.9568L48.0744 11.493C47.8502 11.6848 47.5805 11.8359 47.2652 11.9464C46.95 12.0569 46.6412 12.1121 46.339 12.1121C45.8287 12.1121 45.3932 12.0032 45.0324 11.7855C44.6749 11.5645 44.4019 11.2558 44.2134 10.8593C44.0249 10.4595 43.9307 9.9915 43.9307 9.45525C43.9307 8.94175 44.0249 8.48188 44.2134 8.07562C44.4052 7.66612 44.6798 7.34438 45.0373 7.11038C45.3981 6.87638 45.8352 6.75937 46.3487 6.75937C46.677 6.75937 46.9841 6.80975 47.2701 6.9105C47.5593 7.008 47.8242 7.15588 48.0647 7.35413L47.6649 7.90012C47.4472 7.74737 47.2278 7.63362 47.0068 7.55887C46.7891 7.48087 46.5665 7.44187 46.339 7.44187C45.897 7.44187 45.5329 7.60762 45.2469 7.93912C44.9609 8.27063 44.8179 8.776 44.8179 9.45525C44.8179 9.91025 44.8829 10.2824 45.0129 10.5716C45.1462 10.8576 45.3266 11.0689 45.5541 11.2054C45.7848 11.3386 46.0465 11.4052 46.339 11.4052Z" fill="black"/>
<path d="M54.1644 6.86662L51.8536 9.17737L54.4325 12H53.3551L50.8299 9.19687L53.1016 6.86662H54.1644ZM50.7373 4.69725V12H49.9183V4.79962L50.7373 4.69725Z" fill="black"/>
<path d="M56.7931 11.2492C56.7931 11.09 56.8305 10.947 56.9052 10.8203C56.98 10.6903 57.0807 10.5879 57.2075 10.5131C57.3375 10.4351 57.4837 10.3961 57.6462 10.3961C57.812 10.3961 57.9598 10.4351 58.0898 10.5131C58.2198 10.5879 58.3222 10.6903 58.397 10.8203C58.4717 10.947 58.5091 11.09 58.5091 11.2492C58.5091 11.4085 58.4717 11.5547 58.397 11.688C58.3222 11.818 58.2198 11.922 58.0898 12C57.9598 12.0748 57.812 12.1121 57.6462 12.1121C57.4837 12.1121 57.3375 12.0748 57.2075 12C57.0807 11.922 56.98 11.818 56.9052 11.688C56.8305 11.5547 56.7931 11.4085 56.7931 11.2492Z" fill="black"/>
<path d="M64.9159 6.86662V11.1761C64.9159 11.7481 64.7875 12.2259 64.5308 12.6094C64.274 12.9961 63.9019 13.3065 63.4144 13.5405C62.9269 13.7745 62.337 13.95 61.6448 14.067L61.5083 13.4332C62.0153 13.3487 62.4638 13.222 62.8538 13.053C63.2438 12.884 63.5476 12.6516 63.7654 12.3559C63.9864 12.0634 64.0969 11.688 64.0969 11.2297V7.515H61.9616V6.86662H64.9159ZM64.1505 4.46325C64.3325 4.46325 64.4788 4.5185 64.5893 4.629C64.6998 4.7395 64.755 4.87437 64.755 5.03362C64.755 5.19937 64.6998 5.33912 64.5893 5.45287C64.4788 5.56337 64.3325 5.61862 64.1505 5.61862C63.975 5.61862 63.8336 5.56337 63.7264 5.45287C63.6191 5.33912 63.5655 5.19937 63.5655 5.03362C63.5655 4.87437 63.6191 4.7395 63.7264 4.629C63.8336 4.5185 63.975 4.46325 64.1505 4.46325Z" fill="black"/>
<path d="M69.1485 11.4345C69.5417 11.4345 69.8521 11.3614 70.0796 11.2151C70.3103 11.0656 70.4257 10.8674 70.4257 10.6204C70.4257 10.4644 70.3965 10.3295 70.338 10.2158C70.2827 10.102 70.1673 9.99963 69.9918 9.90863C69.8163 9.81763 69.5466 9.72662 69.1826 9.63562C68.8283 9.54787 68.5196 9.44713 68.2563 9.33337C67.9963 9.21638 67.7932 9.06525 67.647 8.88C67.504 8.69475 67.4325 8.45425 67.4325 8.1585C67.4325 7.86925 67.5137 7.62063 67.6762 7.41263C67.842 7.20138 68.0711 7.0405 68.3636 6.93C68.6561 6.81625 68.9957 6.75937 69.3825 6.75937C69.7952 6.75937 70.1543 6.81462 70.4598 6.92512C70.7686 7.03237 71.0302 7.16562 71.2447 7.32487L70.884 7.88062C70.689 7.74737 70.4745 7.6385 70.2405 7.554C70.0065 7.46625 69.7237 7.42237 69.3922 7.42237C68.9892 7.42237 68.7032 7.48575 68.5342 7.6125C68.3652 7.736 68.2807 7.89688 68.2807 8.09512C68.2807 8.24462 68.3213 8.36975 68.4026 8.4705C68.4871 8.568 68.6285 8.65737 68.8267 8.73862C69.025 8.81662 69.298 8.90275 69.6457 8.997C69.9805 9.08475 70.2713 9.19037 70.5183 9.31387C70.7686 9.43737 70.9636 9.59987 71.1033 9.80137C71.2431 10.0029 71.313 10.2629 71.313 10.5814C71.313 10.9454 71.209 11.2411 71.001 11.4686C70.793 11.6929 70.5232 11.857 70.1917 11.961C69.8635 12.0617 69.5157 12.1121 69.1485 12.1121C68.6837 12.1121 68.2872 12.0455 67.959 11.9123C67.634 11.7758 67.361 11.6116 67.14 11.4199L67.608 10.8788C67.8095 11.0445 68.0402 11.1794 68.3002 11.2834C68.5635 11.3841 68.8462 11.4345 69.1485 11.4345Z" fill="black"/>
<path d="M82.5 9C82.5 10.6569 81.1569 12 79.5 12C77.8431 12 76.5 10.6569 76.5 9C76.5 7.34315 77.8431 6 79.5 6C81.1569 6 82.5 7.34315 82.5 9Z" fill="#FD1E4A"/>
</g>
<defs>
<filter id="filter0_d_122_9" x="0" y="0" width="237.5" height="290" filterUnits="userSpaceOnUse" color-interpolation-filters="sRGB">
<feFlood flood-opacity="0" result="BackgroundImageFix"/>
<feColorMatrix in="SourceAlpha" type="matrix" values="0 0 0 0 0 0 0 0 0 0 0 0 0 0 0 0 0 0 127 0" result="hardAlpha"/>
<feOffset dx="4" dy="4"/>
<feGaussianBlur stdDeviation="2"/>
<feColorMatrix type="matrix" values="0 0 0 0 0 0 0 0 0 0 0 0 0 0 0 0 0 0 1 0"/>
<feBlend mode="normal" in2="BackgroundImageFix" result="effect1_dropShadow_122_9"/>
<feBlend mode="normal" in="SourceGraphic" in2="effect1_dropShadow_122_9" result="shape"/>
</filter>
</defs>
</svg>
